<?xml version="1.0" encoding="UTF-8" standalone="no"?>
<svg
   xmlns:dc="http://purl.org/dc/elements/1.1/"
   xmlns:cc="http://creativecommons.org/ns#"
   xmlns:rdf="http://www.w3.org/1999/02/22-rdf-syntax-ns#"
   xmlns:svg="http://www.w3.org/2000/svg"
   xmlns="http://www.w3.org/2000/svg"
   xmlns:sodipodi="http://sodipodi.sourceforge.net/DTD/sodipodi-0.dtd"
   xmlns:inkscape="http://www.inkscape.org/namespaces/inkscape"
   height="128"
   viewBox="0 0 128 128"
   width="128"
   fill="#000000"
   version="1.1"
   id="svg6"
   sodipodi:docname="disable-all.svg"
   inkscape:version="1.0.1 (3bc2e813f5, 2020-09-07)"
   inkscape:export-filename="F:\Dev\Projects\GitHub\achimmihca\DedoMouse\images\svg\..\disable-all.png"
   inkscape:export-xdpi="96"
   inkscape:export-ydpi="96">
  <metadata
     id="metadata12">
    <rdf:RDF>
      <cc:Work
         rdf:about="">
        <dc:format>image/svg+xml</dc:format>
        <dc:type
           rdf:resource="http://purl.org/dc/dcmitype/StillImage" />
        <dc:title />
      </cc:Work>
    </rdf:RDF>
  </metadata>
  <defs
     id="defs10" />
  <sodipodi:namedview
     pagecolor="#ffffff"
     bordercolor="#666666"
     borderopacity="1"
     objecttolerance="10"
     gridtolerance="10000"
     guidetolerance="10"
     inkscape:pageopacity="0"
     inkscape:pageshadow="2"
     inkscape:window-width="2560"
     inkscape:window-height="1406"
     id="namedview8"
     showgrid="true"
     showguides="true"
     inkscape:guide-bbox="true"
     inkscape:snap-bbox="true"
     inkscape:object-paths="true"
     inkscape:snap-intersection-paths="true"
     inkscape:snap-smooth-nodes="true"
     inkscape:snap-midpoints="true"
     inkscape:snap-object-midpoints="true"
     inkscape:snap-center="true"
     inkscape:snap-text-baseline="true"
     inkscape:zoom="5.6568542"
     inkscape:cx="70.946202"
     inkscape:cy="52.084767"
     inkscape:window-x="1909"
     inkscape:window-y="-11"
     inkscape:window-maximized="1"
     inkscape:current-layer="svg6"
     inkscape:document-rotation="0"
     inkscape:pagecheckerboard="true">
    <sodipodi:guide
       position="12,5"
       orientation="1,0"
       id="guide47" />
    <sodipodi:guide
       position="8.9150943,11.971698"
       orientation="0,-1"
       id="guide49" />
    <inkscape:grid
       type="xygrid"
       id="grid53"
       spacingx="4"
       spacingy="4" />
  </sodipodi:namedview>
  <path
     d="M 0,0 H 128 V 128 H 0 Z"
     fill="none"
     id="path2"
     style="stroke-width:5.33333" />
  <path
     d="M 89.761803,52.928417 C 89.630976,38.569432 77.986779,26.990658 63.595083,26.990658 c -14.391693,0 -26.035882,11.578774 -26.166716,25.937759 v 19.625039 c 0,14.457115 11.709607,26.16672 26.166716,26.16672 14.457109,0 26.16672,-11.709605 26.16672,-26.16672 z m -6.54168,0 H 66.865925 V 33.826714 c 9.191056,1.537294 16.223366,9.485436 16.354198,19.101703 z M 60.324245,33.826714 V 52.928417 H 43.970047 C 44.100879,43.31215 51.133186,35.364008 60.324245,33.826714 Z m 22.895878,38.726742 c 0,10.82648 -8.79856,19.62504 -19.62504,19.62504 -10.826477,0 -19.625036,-8.79856 -19.625036,-19.62504 v -13.08336 h 39.250076 z"
     id="path4"
     style="fill:#666666;stroke-width:3.27084" />
  <path
     id="path887"
     style="color:#000000;font-style:normal;font-variant:normal;font-weight:normal;font-stretch:normal;font-size:medium;line-height:normal;font-family:sans-serif;font-variant-ligatures:normal;font-variant-position:normal;font-variant-caps:normal;font-variant-numeric:normal;font-variant-alternates:normal;font-variant-east-asian:normal;font-feature-settings:normal;font-variation-settings:normal;text-indent:0;text-align:start;text-decoration:none;text-decoration-line:none;text-decoration-style:solid;text-decoration-color:#000000;letter-spacing:normal;word-spacing:normal;text-transform:none;writing-mode:lr-tb;direction:ltr;text-orientation:mixed;dominant-baseline:auto;baseline-shift:baseline;text-anchor:start;white-space:normal;shape-padding:0;shape-margin:0;inline-size:0;clip-rule:nonzero;display:inline;overflow:visible;visibility:visible;opacity:1;isolation:auto;mix-blend-mode:normal;color-interpolation:sRGB;color-interpolation-filters:linearRGB;solid-color:#000000;solid-opacity:1;vector-effect:none;fill:#800000;fill-opacity:1;fill-rule:nonzero;stroke:#800000;stroke-width:0.533333;stroke-linecap:butt;stroke-linejoin:miter;stroke-miterlimit:4;stroke-dasharray:none;stroke-dashoffset:0;stroke-opacity:1;color-rendering:auto;image-rendering:auto;shape-rendering:auto;text-rendering:auto;enable-background:accumulate;stop-color:#000000;stop-opacity:1"
     d="M 64,8 C 33.103639,8 8,33.103639 8,64 8,94.896363 33.103639,120 64,120 94.896363,120 120,94.896363 120,64 120,33.103639 94.896363,8 64,8 Z m 0,5.333333 c 28.014011,0 50.66667,22.652654 50.66667,50.666667 0,13.045237 -4.95299,24.890587 -13.03125,33.864581 L 30.135417,26.364583 C 39.109412,18.286319 50.954763,13.333333 64,13.333333 Z M 26.364583,30.135417 97.864581,101.63542 C 88.890587,109.71368 77.045237,114.66667 64,114.66667 35.985987,114.66667 13.333333,92.014011 13.333333,64 c 0,-13.045237 4.952986,-24.890588 13.03125,-33.864583 z" />
</svg>
